<?xml version="1.0" standalone="no"?>
<!DOCTYPE svg PUBLIC "-//W3C//DTD SVG 20010904//EN"
 "http://www.w3.org/TR/2001/REC-SVG-20010904/DTD/svg10.dtd">
<svg version="1.0" xmlns="http://www.w3.org/2000/svg"
 width="640.000000pt" height="640.000000pt" viewBox="0 0 640.000000 640.000000"
 preserveAspectRatio="xMidYMid meet">
<metadata>
Created by potrace 1.14, written by Peter Selinger 2001-2017
</metadata>
<g transform="translate(0.000000,640.000000) scale(0.100000,-0.100000)"
fill="#000000" stroke="none">
<path d="M3388 6252 c-16 -3 -17 -143 -17 -2280 0 -1252 -1 -2310 -1 -2349 l0
-73 -62 34 c-60 33 -149 64 -206 72 -104 14 -150 17 -247 18 -101 0 -170 -6
-235 -19 -14 -3 -38 -8 -53 -10 -16 -3 -68 -19 -115 -36 -48 -17 -91 -32 -97
-33 -21 -5 -197 -97 -252 -132 -233 -148 -420 -342 -497 -515 -113 -256 -59
-487 149 -638 71 -51 120 -76 199 -100 106 -33 112 -34 266 -37 122 -2 163 1
261 21 117 25 340 96 359 115 3 3 41 23 85 45 117 58 238 147 341 250 131 130
199 237 245 385 l24 75 1 1383 c1 761 4 1385 7 1388 3 3 29 -10 59 -28 29 -19
74 -47 100 -61 79 -44 279 -158 340 -192 31 -18 66 -36 77 -40 12 -3 21 -11
21 -16 0 -5 4 -9 10 -9 5 0 31 -13 57 -28 27 -16 82 -48 123 -73 167 -98 353
-230 450 -321 101 -93 250 -315 250 -372 0 -8 4 -17 8 -20 7 -4 31 -91 37
-136 2 -8 5 -35 9 -60 10 -72 17 -178 17 -275 0 -82 -2 -110 -16 -185 -3 -14
-7 -41 -10 -60 -7 -40 -37 -152 -60 -225 -9 -27 -18 -57 -20 -65 -14 -62 -140
-327 -172 -362 -15 -17 -14 -18 8 -19 86 -5 83 -6 113 41 79 122 178 334 213
455 8 28 17 57 20 65 9 20 25 89 38 161 3 13 7 35 10 49 19 91 26 386 11 495
-19 147 -69 307 -137 439 -16 30 -19 48 -13 75 9 47 9 46 27 116 61 236 70
525 23 748 -3 15 -8 37 -11 50 -2 12 -13 48 -24 79 -11 31 -17 59 -14 62 4 3
2 6 -4 6 -5 0 -15 18 -22 41 -18 59 -123 260 -176 335 -25 36 -45 69 -45 74 0
4 -3 10 -7 12 -5 2 -43 47 -86 101 -88 110 -304 331 -442 452 -49 43 -92 81
-95 85 -3 3 -34 30 -70 60 -36 31 -76 65 -90 77 -14 11 -70 58 -125 104 -55
45 -111 94 -125 108 -54 57 -124 158 -156 227 -38 81 -87 242 -80 261 3 7 1
15 -4 18 -5 3 -9 13 -9 23 1 27 -13 157 -16 160 -5 5 -126 8 -147 4z m285
-1197 c105 -55 329 -188 374 -221 17 -13 34 -24 37 -24 5 0 108 -71 141 -97 6
-5 22 -16 36 -25 14 -9 32 -23 40 -30 8 -7 37 -31 64 -53 80 -63 236 -223 308
-315 72 -92 70 -88 108 -140 40 -55 129 -216 129 -234 0 -9 4 -16 9 -16 11 0
62 -180 69 -249 11 -100 5 -471 -7 -471 -3 0 -22 24 -41 53 -54 79 -122 160
-255 297 -102 105 -255 246 -340 311 -16 13 -34 29 -40 35 -5 6 -46 39 -90 74
-149 117 -405 395 -405 439 0 6 -7 14 -15 17 -8 4 -15 10 -15 15 0 5 -12 28
-27 52 -38 59 -114 207 -106 207 3 0 0 6 -6 13 -14 18 -69 185 -77 234 -3 21
-8 41 -10 44 -2 3 -6 41 -10 85 l-7 78 24 -16 c13 -9 64 -37 112 -63z"/>
</g>
</svg>
